<mxfile host="www.draw.io" modified="2019-11-03T06:05:16.406Z" agent="Mozilla/5.0 (Windows NT 10.0; Win64; x64) AppleWebKit/537.36 (KHTML, like Gecko) Chrome/78.0.3904.70 Safari/537.36" etag="yQOII-59zXLTInq3iP-v" version="12.1.9" type="github" pages="1">
  <diagram id="UyK__mT-6xzAxVWplXEi" name="Page-1">
    <mxGraphModel dx="1019" dy="519" grid="1" gridSize="10" guides="1" tooltips="1" connect="1" arrows="1" fold="1" page="1" pageScale="1" pageWidth="827" pageHeight="1169" math="0" shadow="0">
      <root>
        <mxCell id="0"/>
        <mxCell id="1" parent="0"/>
        <mxCell id="z1KRDs5EiEEaAi_wzN2f-3" value="" style="edgeStyle=orthogonalEdgeStyle;rounded=0;orthogonalLoop=1;jettySize=auto;html=1;fontSize=16;fontFamily=Times New Roman;" parent="1" source="z1KRDs5EiEEaAi_wzN2f-1" edge="1">
          <mxGeometry relative="1" as="geometry">
            <mxPoint x="220" y="353" as="targetPoint"/>
          </mxGeometry>
        </mxCell>
        <mxCell id="z1KRDs5EiEEaAi_wzN2f-1" value="特征向量集合" style="ellipse;whiteSpace=wrap;html=1;fontSize=16;fontFamily=Times New Roman;" parent="1" vertex="1">
          <mxGeometry x="160" y="193" width="120" height="80" as="geometry"/>
        </mxCell>
        <mxCell id="z1KRDs5EiEEaAi_wzN2f-6" value="" style="edgeStyle=orthogonalEdgeStyle;rounded=0;orthogonalLoop=1;jettySize=auto;html=1;fontSize=16;fontFamily=Times New Roman;" parent="1" source="z1KRDs5EiEEaAi_wzN2f-4" edge="1">
          <mxGeometry relative="1" as="geometry">
            <mxPoint x="220" y="480" as="targetPoint"/>
          </mxGeometry>
        </mxCell>
        <mxCell id="z1KRDs5EiEEaAi_wzN2f-4" value="特征选择" style="rounded=0;whiteSpace=wrap;html=1;fontSize=16;fontFamily=Times New Roman;" parent="1" vertex="1">
          <mxGeometry x="160" y="353" width="120" height="60" as="geometry"/>
        </mxCell>
        <mxCell id="z1KRDs5EiEEaAi_wzN2f-9" value="" style="edgeStyle=orthogonalEdgeStyle;rounded=0;orthogonalLoop=1;jettySize=auto;html=1;fontSize=16;fontFamily=Times New Roman;" parent="1" source="z1KRDs5EiEEaAi_wzN2f-7" edge="1">
          <mxGeometry relative="1" as="geometry">
            <mxPoint x="380" y="520" as="targetPoint"/>
          </mxGeometry>
        </mxCell>
        <mxCell id="z1KRDs5EiEEaAi_wzN2f-18" value="" style="edgeStyle=orthogonalEdgeStyle;rounded=0;orthogonalLoop=1;jettySize=auto;html=1;fontSize=16;fontFamily=Times New Roman;" parent="1" source="z1KRDs5EiEEaAi_wzN2f-7" edge="1">
          <mxGeometry relative="1" as="geometry">
            <mxPoint x="220" y="640" as="targetPoint"/>
          </mxGeometry>
        </mxCell>
        <mxCell id="z1KRDs5EiEEaAi_wzN2f-7" value="特征遍历完成？" style="rhombus;whiteSpace=wrap;html=1;fontSize=16;fontFamily=Times New Roman;" parent="1" vertex="1">
          <mxGeometry x="140" y="480" width="160" height="80" as="geometry"/>
        </mxCell>
        <mxCell id="z1KRDs5EiEEaAi_wzN2f-12" value="" style="edgeStyle=orthogonalEdgeStyle;rounded=0;orthogonalLoop=1;jettySize=auto;html=1;fontSize=16;fontFamily=Times New Roman;" parent="1" source="z1KRDs5EiEEaAi_wzN2f-10" target="z1KRDs5EiEEaAi_wzN2f-11" edge="1">
          <mxGeometry relative="1" as="geometry"/>
        </mxCell>
        <mxCell id="z1KRDs5EiEEaAi_wzN2f-10" value="CNN-LSTM" style="rounded=0;whiteSpace=wrap;html=1;fontSize=16;fontFamily=Times New Roman;" parent="1" vertex="1">
          <mxGeometry x="380" y="490" width="120" height="60" as="geometry"/>
        </mxCell>
        <mxCell id="z1KRDs5EiEEaAi_wzN2f-16" value="" style="edgeStyle=orthogonalEdgeStyle;rounded=0;orthogonalLoop=1;jettySize=auto;html=1;entryX=1;entryY=0.5;entryDx=0;entryDy=0;fontSize=16;fontFamily=Times New Roman;" parent="1" source="z1KRDs5EiEEaAi_wzN2f-11" target="z1KRDs5EiEEaAi_wzN2f-4" edge="1">
          <mxGeometry relative="1" as="geometry">
            <mxPoint x="300" y="380" as="targetPoint"/>
          </mxGeometry>
        </mxCell>
        <mxCell id="z1KRDs5EiEEaAi_wzN2f-11" value="识别率" style="rounded=0;whiteSpace=wrap;html=1;fontSize=16;fontFamily=Times New Roman;" parent="1" vertex="1">
          <mxGeometry x="380" y="353" width="120" height="60" as="geometry"/>
        </mxCell>
        <mxCell id="z1KRDs5EiEEaAi_wzN2f-19" value="最佳特征向量集合" style="rounded=0;whiteSpace=wrap;html=1;fontSize=16;fontFamily=Times New Roman;" parent="1" vertex="1">
          <mxGeometry x="160" y="640" width="120" height="60" as="geometry"/>
        </mxCell>
        <mxCell id="z1KRDs5EiEEaAi_wzN2f-21" value="是" style="text;html=1;resizable=0;points=[];autosize=1;align=left;verticalAlign=top;spacingTop=-4;fontSize=16;fontFamily=Times New Roman;" parent="1" vertex="1">
          <mxGeometry x="220" y="584.5" width="30" height="10" as="geometry"/>
        </mxCell>
        <mxCell id="z1KRDs5EiEEaAi_wzN2f-22" value="否" style="text;html=1;resizable=0;points=[];autosize=1;align=left;verticalAlign=top;spacingTop=-4;fontSize=16;fontFamily=Times New Roman;" parent="1" vertex="1">
          <mxGeometry x="320" y="520" width="30" height="10" as="geometry"/>
        </mxCell>
      </root>
    </mxGraphModel>
  </diagram>
</mxfile>
